<?xml version="1.0" encoding="iso-8859-1"?>
<!-- Generator: Adobe Illustrator 19.0.0, SVG Export Plug-In . SVG Version: 6.00 Build 0)  -->
<svg version="1.1" id="Layer_1" xmlns="http://www.w3.org/2000/svg" xmlns:xlink="http://www.w3.org/1999/xlink" x="0px" y="0px"
	 viewBox="0 0 512 512" style="enable-background:new 0 0 512 512;" xml:space="preserve">
<circle style="fill:#FEE187;" cx="256" cy="256" r="256"/>
<path style="fill:#FFC61B;" d="M343.776,496.552c69.903-25.514,125.549-80.634,151.797-150.18L314.844,165.643l-46.201,50.707
	l-115.497,89.572L343.776,496.552z"/>
<path style="fill:#273B7A;" d="M389.011,389.013L389.011,389.013c-12.279,12.279-32.19,12.279-44.47,0l-88.94-88.94
	c-12.279-12.279-12.279-32.191,0-44.47l0,0c12.279-12.279,32.191-12.279,44.47,0l88.94,88.94
	C401.293,356.823,401.293,376.732,389.011,389.013z"/>
<path style="fill:#121149;" d="M255.602,300.073l88.94,88.94c12.243,12.243,32.068,12.272,44.358,0.102L255.5,255.716
	C243.329,268.004,243.359,287.828,255.602,300.073z"/>
<path style="fill:#71E2EF;" d="M288.954,155.546c-36.84-36.84-96.57-36.84-133.41,0c-0.036,0.036-0.069,0.074-0.105,0.11
	c-36.733,36.848-36.7,96.496,0.105,133.299c36.804,36.805,96.451,36.836,133.299,0.105c0.036-0.036,0.074-0.067,0.11-0.105
	C325.794,252.114,325.794,192.386,288.954,155.546z"/>
<path style="fill:#38C6D9;" d="M155.441,155.655c-36.733,36.848-36.7,96.496,0.105,133.299
	c36.804,36.805,96.451,36.836,133.299,0.105L155.441,155.655z"/>
<path style="fill:#386895;" d="M222.249,330.723c-27.791,0-55.58-10.578-76.736-31.737c-42.315-42.312-42.315-111.159,0-153.472
	c42.312-42.317,111.159-42.317,153.472,0c42.315,42.312,42.315,111.159,0,153.472C277.83,320.145,250.04,330.723,222.249,330.723z
	 M222.249,142.141c-20.523,0-41.046,7.813-56.673,23.436c-31.248,31.249-31.248,82.096,0,113.347
	c31.253,31.248,82.094,31.248,113.347,0c31.248-31.249,31.248-82.096,0-113.347C263.297,149.954,242.772,142.141,222.249,142.141z"
	/>
<path style="fill:#273B7A;" d="M278.812,279.028c-31.261,31.141-82.02,31.108-113.236-0.105
	c-31.211-31.215-31.244-81.977-0.105-113.236l-20.061-20.061c-42.206,42.322-42.174,111.087,0.105,153.362
	c21.156,21.158,48.945,31.737,76.736,31.737c27.745,0,55.484-10.545,76.626-31.632L278.812,279.028z"/>
<rect x="174.976" y="202.318" style="fill:#FFC61B;" width="22.411" height="64.043"/>
<rect x="186.044" y="202.318" style="fill:#EAA22F;" width="11.348" height="64.043"/>
<rect x="242.209" y="176.7" style="fill:#B54324;" width="22.411" height="89.66"/>
<rect x="252.845" y="176.7" style="fill:#930000;" width="11.779" height="89.66"/>
<rect x="208.593" y="189.492" style="fill:#FF5419;" width="22.411" height="76.85"/>
<rect x="219.66" y="189.492" style="fill:#C92F00;" width="11.348" height="76.85"/>
<g>
</g>
<g>
</g>
<g>
</g>
<g>
</g>
<g>
</g>
<g>
</g>
<g>
</g>
<g>
</g>
<g>
</g>
<g>
</g>
<g>
</g>
<g>
</g>
<g>
</g>
<g>
</g>
<g>
</g>
</svg>
