<?xml version="1.0" encoding="iso-8859-1"?>
<!-- Generator: Adobe Illustrator 19.0.0, SVG Export Plug-In . SVG Version: 6.00 Build 0)  -->
<svg version="1.1" id="Capa_1" xmlns="http://www.w3.org/2000/svg" xmlns:xlink="http://www.w3.org/1999/xlink" x="0px" y="0px"
	 viewBox="0 0 512 512" style="enable-background:new 0 0 512 512;" xml:space="preserve">
<circle style="fill:#F5C346;" cx="116.05" cy="112" r="16"/>
<g>
	<circle style="fill:#FF5A6E;" cx="148.05" cy="48" r="16"/>
	<circle style="fill:#FF5A6E;" cx="180.05" cy="176" r="16"/>
</g>
<circle style="fill:#F5C346;" cx="212.05" cy="160" r="16"/>
<path style="fill:#B4EBFA;" d="M452.052,87.5h-224v-64h224c17.673,0,32,14.327,32,32l0,0C484.052,73.173,469.725,87.5,452.052,87.5z
	"/>
<g>
	<rect x="228.05" y="23.5" style="fill:#83DDF2;" width="16" height="64"/>
	<polygon style="fill:#83DDF2;" points="315.552,64 228.052,64 228.052,87.5 292.052,87.5 	"/>
</g>
<path style="fill:#F5C346;" d="M484.052,55.25c0,8.84-3.58,16.965-9.37,22.755s-13.79,9.495-22.63,9.495h-160l64-64h96
	C469.722,23.5,484.052,37.58,484.052,55.25z"/>
<path style="fill:#D69627;" d="M452.052,87.5h-160l23.5-23.5h136.5c17.673,0,32-8.5,32-8.5l0,0
	C484.052,73.173,469.725,87.5,452.052,87.5z"/>
<rect x="196.05" y="7.5" style="fill:#B4EBFA;" width="32" height="96"/>
<g>
	<rect x="212.05" y="7.5" style="fill:#83DDF2;" width="16" height="96"/>
	<rect x="196.05" y="64" style="fill:#83DDF2;" width="32" height="39.5"/>
</g>
<g>
	<rect x="372.05" y="56" style="fill:#FFFFFF;" width="16" height="15"/>
	<rect x="436.05" y="40" style="fill:#FFFFFF;" width="16" height="15"/>
</g>
<polygon style="fill:#B4EBFA;" points="356.052,504 36.052,504 164.052,344 164.052,264 228.052,264 228.052,344 "/>
<g>
	<polygon style="fill:#83DDF2;" points="196.052,264 196.052,344 144.852,408 112.852,408 164.052,344 164.052,264 	"/>
	<rect x="164.05" y="264" style="fill:#83DDF2;" width="64" height="16"/>
</g>
<polygon style="fill:#FF5A6E;" points="356.052,504 36.052,504 112.852,408 279.252,408 "/>
<polygon style="fill:#D72850;" points="144.852,408 68.052,504 36.052,504 112.852,408 "/>
<circle style="fill:#FFFFFF;" cx="212.05" cy="408" r="16"/>
<rect x="132.05" y="232" style="fill:#B4EBFA;" width="128" height="32"/>
<g>
	<rect x="132.05" y="248" style="fill:#83DDF2;" width="128" height="16"/>
	<rect x="132.05" y="232" style="fill:#83DDF2;" width="64" height="32"/>
</g>
<circle style="fill:#FFFFFF;" cx="156.05" cy="456" r="24"/>
<path d="M116.052,135.5c12.958,0,23.5-10.542,23.5-23.5s-10.542-23.5-23.5-23.5s-23.5,10.542-23.5,23.5S103.094,135.5,116.052,135.5
	z M116.052,103.5c4.687,0,8.5,3.813,8.5,8.5s-3.813,8.5-8.5,8.5s-8.5-3.813-8.5-8.5S111.365,103.5,116.052,103.5z"/>
<path d="M148.052,71.5c12.958,0,23.5-10.542,23.5-23.5s-10.542-23.5-23.5-23.5s-23.5,10.542-23.5,23.5S135.094,71.5,148.052,71.5z
	 M148.052,39.5c4.687,0,8.5,3.813,8.5,8.5s-3.813,8.5-8.5,8.5s-8.5-3.813-8.5-8.5S143.365,39.5,148.052,39.5z"/>
<path d="M156.552,176c0,12.958,10.542,23.5,23.5,23.5c11.018,0,20.285-7.623,22.814-17.871c2.824,1.204,5.928,1.871,9.186,1.871
	c12.958,0,23.5-10.542,23.5-23.5s-10.542-23.5-23.5-23.5c-11.018,0-20.285,7.623-22.814,17.871
	c-2.824-1.204-5.928-1.871-9.186-1.871C167.094,152.5,156.552,163.042,156.552,176z M212.052,151.5c4.687,0,8.5,3.813,8.5,8.5
	s-3.813,8.5-8.5,8.5s-8.5-3.813-8.5-8.5S207.365,151.5,212.052,151.5z M180.052,167.5c4.687,0,8.5,3.813,8.5,8.5s-3.813,8.5-8.5,8.5
	s-8.5-3.813-8.5-8.5S175.365,167.5,180.052,167.5z"/>
<path d="M452.052,16h-217V0h-47v111h47V31h102.893l-49,49h-28.893v15h192c21.78,0,39.5-17.72,39.5-39.5S473.833,16,452.052,16z
	 M220.052,96h-17V15h17V96z M452.052,80H310.159l49-49h92.893c13.51,0,24.5,10.991,24.5,24.5S465.562,80,452.052,80z"/>
<path d="M235.052,296h-15v50.631L263.648,401h-29.33c-3.138-10-11.93-16-22.266-16s-19.128,6-22.266,16h-49.734v15h49.734
	c3.138,9,11.93,16,22.266,16c10.336,0,19.128-7,22.266-16h41.33l64.8,81H51.657l119.395-150.369V272h96v-47h-143v47h32v69.369
	L20.448,512h351.209L235.052,341.369V296z M212.052,416.5c-4.687,0-8.5-3.813-8.5-8.5s3.813-8.5,8.5-8.5s8.5,3.813,8.5,8.5
	S216.739,416.5,212.052,416.5z M139.052,257v-17h113v17H139.052z"/>
<path d="M156.052,487.5c17.369,0,31.5-14.131,31.5-31.5s-14.131-31.5-31.5-31.5s-31.5,14.131-31.5,31.5S138.683,487.5,156.052,487.5
	z M156.052,439.5c9.098,0,16.5,7.402,16.5,16.5s-7.402,16.5-16.5,16.5s-16.5-7.402-16.5-16.5S146.954,439.5,156.052,439.5z"/>
<g>
	<rect x="244.05" y="464.5" style="fill:#FFFFFF;" width="16" height="15"/>
	<rect x="164.05" y="368.5" style="fill:#FFFFFF;" width="16" height="15"/>
</g>
<g>
</g>
<g>
</g>
<g>
</g>
<g>
</g>
<g>
</g>
<g>
</g>
<g>
</g>
<g>
</g>
<g>
</g>
<g>
</g>
<g>
</g>
<g>
</g>
<g>
</g>
<g>
</g>
<g>
</g>
</svg>
