<?xml version="1.0" encoding="iso-8859-1"?>
<!-- Generator: Adobe Illustrator 19.0.0, SVG Export Plug-In . SVG Version: 6.00 Build 0)  -->
<svg version="1.1" id="Capa_1" xmlns="http://www.w3.org/2000/svg" xmlns:xlink="http://www.w3.org/1999/xlink" x="0px" y="0px"
	 viewBox="0 0 468.272 468.272" style="enable-background:new 0 0 468.272 468.272;" xml:space="preserve">
<path style="fill:#2F4859;" d="M185.537,0h-64.325c-9.791,0-17.729,7.937-17.729,17.729v34.4h99.783v-34.4
	C203.266,7.937,195.329,0,185.537,0z"/>
<path style="fill:#FCD462;" d="M402.846,172.748v272.047c0,12.987-10.553,23.477-23.54,23.477H88.903
	c-12.988,0-23.477-10.49-23.477-23.477V70.785c0-12.987,10.489-23.477,23.477-23.477h188.503c6.181,0,12.175,2.435,16.609,6.868
	l101.9,101.901C400.348,160.51,402.846,166.504,402.846,172.748z"/>
<path style="fill:#F7BE56;" d="M402.846,172.748v272.047c0,12.987-10.553,23.477-23.54,23.477h-264.43
	c-12.987,0-23.54-10.49-23.54-23.477V70.785c0-8.866,4.933-16.609,12.176-20.605c3.371-1.811,7.243-2.872,11.364-2.872h162.529
	c6.181,0,12.175,2.435,16.609,6.868l101.9,101.901C400.348,160.51,402.846,166.504,402.846,172.748z"/>
<path style="fill:#FFFFFF;" d="M354.574,165.535l-70.008-70.008c-5.61-5.61-14.706-5.61-20.315,0c-5.61,5.61-5.61,14.705,0,20.315
	l70.008,70.008c5.61,5.61,14.706,5.61,20.315,0v0C360.184,180.24,360.184,171.145,354.574,165.535z"/>
<path style="fill:#FCD462;" d="M234.119,232.405c0,0-41.859,50.499-41.859,73.617c0,23.118,18.741,41.859,41.859,41.859
	s41.859-18.741,41.859-41.859C275.977,282.904,234.119,232.405,234.119,232.405z"/>
<g>
</g>
<g>
</g>
<g>
</g>
<g>
</g>
<g>
</g>
<g>
</g>
<g>
</g>
<g>
</g>
<g>
</g>
<g>
</g>
<g>
</g>
<g>
</g>
<g>
</g>
<g>
</g>
<g>
</g>
</svg>
